<svg height="87" viewBox="0 0 106 87" width="106" xmlns="http://www.w3.org/2000/svg"><path d="m143.24 572.2-18 34.08-12 3.12c1.28-2.4 2.84-4.48 4.68-6.24s3.8-2.64 5.88-2.64c5.12 0 9.76 2.08 13.92 6.24s6.24 9.52 6.24 16.08c0 6.72-2.28 12.52-6.84 17.4s-10.28 7.32-17.16 7.32c-6.56 0-12.24-2.4-17.04-7.2s-7.2-10.64-7.2-17.52c0-2.88.52-6.16 1.56-9.84s3.16-8.48 6.36-14.4l20.16-36.96zm56.88 0-18.24 34.08-12 3.12c1.44-2.4 3.04-4.48 4.8-6.24s3.76-2.64 6-2.64c5.12 0 9.72 2.08 13.8 6.24s6.12 9.52 6.12 16.08c0 6.72-2.28 12.52-6.84 17.4s-10.28 7.32-17.16 7.32c-6.56 0-12.24-2.4-17.04-7.2s-7.2-10.64-7.2-17.52c0-2.88.56-6.16 1.68-9.84s3.28-8.48 6.48-14.4l19.92-36.96z" transform="translate(-95 -561)"/></svg>